<svg xmlns="http://www.w3.org/2000/svg" xml:space="preserve" x="0px" y="0px" viewBox="0 0 500 142.475"><g fill="#F85A8F"><path d="m188.854 75.153-.515-1.835.515 1.835zM219.154 90.402zM218.998 90.292zM188.846 75.243l.02-.048-.02.048zM188.861 75.18l-.017.066.017-.066c0 .001 0 .001 0 0zM138.641 68.566c.131-.391.094-.76-.146-1.088.24.327.277.697.146 1.088zM187.951 75.283c.274-.198.607-.07.904-.125l-.002-.005c-.3.058-.63-.066-.902.13zM389.25 58.688c.181.656.452 1.291.677 1.937-.225-.646-.495-1.281-.677-1.937zM431.045 56.969zM432.351 49.118c-.002-.027-.004-.054-.008-.08.004.026.006.053.008.08zM430.339 57.76l-.036.024-.005.004zM219.244 90.483zM274.08 70.373l-.182-.01.182.01zM325.185 64.477c-.355-.156-.716-.305-.997-.57.28.264.641.414.997.57zM103.824 86.764c-.06.512-.365.981-.654 1.431l.002-.001c.002-.002.036.02.036.02l-.034-.021c.285-.447.59-.916.65-1.429zM85.249 104.488l-.025.024.023-.022.002-.002zM35.343 119.221c.458-.425 1.013-.573 1.644-.475-.631-.098-1.186.05-1.644.475zM54.646 65.879c.036-.204.043-.419.118-.607-.074.185-.082.397-.119.603l.001.004zM22.174 125.909c.45-.319.956-.542 1.554-.595.275-.153.554-.301.827-.458-.273.157-.551.305-.827.458-.598.053-1.104.276-1.554.595zM55.456 66.377c-.256-.18-.544-.316-.81-.482l-.002.014c.272.154.558.289.812.468zM22.034 126.012zM37.027 118.862h-.003.003zM37.029 118.862c.005-.001.01-.005.015-.014-.005.009-.01.013-.015.014zM49.874 62.271c.012.101.021.203.031.304-.01-.102-.019-.203-.031-.304z"/><path d="m85.257 104.479.006-.006-.038.039a.709.709 0 0 1 .032-.033zM85.283 141.344l.033-.044-.033.044zM449.339 36.205c.004.002.031.042.031.042l-.026-.04c.328.042.551-.028.616-.222-.065.194-.289.263-.621.22zM54.405 65.324c.124.15.162.372.237.563l.002-.012c-.077-.183-.116-.402-.239-.551zM85.135 105.177c-.113-.15-.119-.286-.068-.415-.051.128-.046.266.068.415zM88.858 139.646l-.277.143.277-.143zM54.641 65.907c-.024.253-.07.496-.195.705.124-.207.171-.449.198-.703l-.003-.002zM476.251 58.532c.057-.025.115-.066.172-.091-.057.025-.116.066-.172.091zM476.594 58.752zM476.618 58.718zM497.009 11.6l.005-.009zM496.954 11.618v.002a.503.503 0 0 1 .057-.028l-.057.026zM496.953 11.622l-.001.004.043-.001.001-.002a.193.193 0 0 0-.043-.001zM478.714 59.921a.932.932 0 0 1 .234-.138h-.002c-.084.04-.169.08-.232.138zM45.41 114.408c-.003-.178-.183-.365-.311-.525-.096-.121-.245-.198-.36-.306-.17-.16-.161-.31.018-.548.307-.409.295-.681-.051-.907-.265-.173-.548-.318-.811-.493a2.643 2.643 0 0 1-.482-.399c-.048-.052-.02-.187-.005-.281.006-.035.075-.084.116-.085.307-.007.615-.004.942-.004.159-1.662-.186-3.271-.353-4.889a2.047 2.047 0 0 0-.732-1.369 2.116 2.116 0 0 1-.405-.47c-.036-.055.014-.204.071-.272.098-.115.232-.2.378-.32-.2-.979-.225-1.98-.489-2.95-.502-1.841-.577-3.756-.94-5.621.045-.964-.237-1.884-.402-2.818-.111-.624-.224-1.246-.317-1.873-.108-.721-.172-1.477-.712-2.066-.094-.102-.116-.293-.126-.446-.024-.349-.191-.582-.481-.767-.174-.111-.316-.277-.462-.427-.026-.026-.013-.106.005-.153.017-.045.057-.107.096-.114.152-.03.307-.047.461-.058.211-.015.423-.007.632-.031.312-.036.555-.466.355-.728-.468-.613-.367-1.288-.322-1.968.263-.417.109-.813-.063-1.206-.256-.586-.542-1.141-1.137-1.475-.177-.099-.313-.282-.446-.445-.273-.332-.626-.359-1.008-.295-.156.026-.309.07-.462.111-.909.24-1.549.883-2.219 1.481-.271.242-.315.641-.181 1.026.102.294.474.451.397.88-.049.09-.108.239-.202.361-.247.322-.321.685-.175 1.046.183.454.205.9.207 1.387.005.837.065 1.689.53 2.444.142.231.203.531.097.767-.341.76-.119 1.57-.261 2.346-.077.417.03.837.16 1.247.207.654.408 1.313.563 1.981.155.664.25 1.341.376 2.039.193.149.404.305.608.47.241.195.283.412.131.693-.1.185-.228.356-.32.545-.395.82-.361 1.003.316 1.838-.183.447-.227.886.05 1.333.136.221.262.485.276.737.038.66.286 1.225.634 1.767.151.236.131.494.033.759-.276.748-.27.75.249 1.183.119.099.254.19.342.313.05.07.059.218.018.294-.072.133-.202.233-.299.354-.114.143-.111.305.013.429.148.148.329.261.485.401.215.193.325.406.116.683-.105.139-.075.302.012.442.197.315.412.616.73.826.22.145.443.285.658.438.209.148.191.357-.031.496-.393.244-.443.318-.35.555.154.393.323.78.468 1.176.09.247.157.504.22.76.12.493-.048.735-.511.742-.317.005-.635-.005-.952.001-.211.004-.436-.018-.631.044-1.056.338-2.154.58-3.12 1.137-.486.28-.95.424-1.499.343-.174-.026-.29.085-.264.277.033.246-.054.413-.303.457-.254.045-.548-.011-.717.245-.245.37-.584.402-.976.328-.308-.058-.636-.168-.929-.114a4.893 4.893 0 0 0-1.345.462c-.262.136-.44.435-.68.685-.313-.036-.626-.071-.939-.109-.373-.046-.752-.053-1.096.098-1.062.466-2.169.817-3.237 1.263-.736.308-1.487.542-2.253.736a4.694 4.694 0 0 1-.94.117c-.511.023-.919-.291-1.024-.806-.051-.253-.096-.543-.023-.779.336-1.089.222-2.203.244-3.31a1.208 1.208 0 0 0-.217-.744c-.119-.171-.242-.366-.275-.565-.153-.935-.57-1.82-.526-2.794a2.26 2.26 0 0 0-.071-.628c-.127-.519-.233-1.027-.016-1.555.052-.126-.008-.311-.051-.459-.166-.573-.433-1.075-.986-1.378a.998.998 0 0 1-.331-.325c-.046-.07-.055-.24-.007-.284.211-.191.317-.377.223-.681-.126-.408.077-.719.404-.951.429-.305.919-.546 1.016-1.151.013-.079.138-.158.228-.202.306-.149.472-.411.602-.706.619-1.401 1.109-2.856 1.784-4.236.188-.384.143-.831-.175-1.19-.07-.079-.144-.157-.202-.244-.141-.212-.126-.446.09-.536.423-.178.676-.483.85-.89.108-.253.184-.497.05-.757a3.32 3.32 0 0 1-.226-2.608.9.9 0 0 0-.059-.614 33.638 33.638 0 0 0-.998-1.802 1.342 1.342 0 0 0-.326-.343c-.783-.629-1.581-1.24-2.354-1.881-.547-.453-1.156-.768-1.86-.793-.5-.018-.926-.181-1.351-.401-.375-.194-.769-.358-1.124-.584-.473-.302-.94-.423-1.5-.255-.347.104-.728.115-1.094.124-.277.007-.503-.152-.659-.382-.088-.13-.183-.271-.217-.421-.162-.711-.657-1.042-1.312-1.229-.303-.089-.583-.263-.888-.339-.841-.209-1.682-.279-2.412.324-.387.32-.819.457-1.311.477-.274.011-.505.164-.686.362-.212.233-.424.475-.584.744-.065.109-.033.315.023.448.058.137.214.23.299.359.054.081.098.209.071.29-.023.068-.155.14-.24.14-.314.003-.631-.052-.941-.022-.126.012-.262.168-.346.29-.097.142-.041.304.09.413.202.168.425.312.614.491.053.051.034.192.024.289-.003.033-.079.081-.124.083a4.85 4.85 0 0 1-.467.002c-.211-.007-.422-.031-.633-.031-.237 0-.503.219-.597.457-.313.797-.389 1.642-.508 2.478-.052.364-.139.727-.149 1.092-.01.41.454.565.574.918.017.049.019.104.028.156-.051.056-.094.13-.147.179a.194.194 0 0 1-.058.038c-.338.141-.479.394-.471.745.004.159.003.318.023.475.047.382-.05.71-.241 1.052-.505.901-.423 1.15.39 1.708.276.189.323.42.103.677-.355.416-.401.871-.248 1.337.264.801.577 1.587.886 2.373.076.193.187.384.324.54.32.363.55.761.714 1.221.08.225.311.424.518.571.345.242.738.415 1.087.653.165.112.348.287.394.467.103.398.346.631.68.826.686.398 1.36.817 2.045 1.218.181.106.379.249.572.255.862.027 1.652.333 2.458.575.442.132.843.08 1.188-.223.352-.309.759-.402 1.18-.261.289.097.545.302.806.473.126.082.125.344.01.418-.087.056-.181.101-.272.15-.458.25-.568.428-.506.848.085.578.24 1.136.498 1.663.188.384.328.773.311 1.214-.035.883.368 1.514 1.154 1.908.045.022.075.073.114.108.094.084.07.308-.062.412-.123.096-.261.173-.4.263-.045.375-.095.739-.131 1.104-.061.615.083 1.155.594 1.554.083.065.167.13.241.205.162.164.135.302-.09.498-.27.235-.305.298-.16.492.29.387.43.809.544 1.286.183.764.325 1.554.707 2.264.099.185-.001.443-.176.55-.449.274-.872.571-1.281.912-.562.468-1.228.814-1.859 1.195a.84.84 0 0 1-.454.113c-.532-.027-.886.24-1.217.617-.125.143-.355.214-.551.271-.301.088-.663.058-.911.216-.531.337-1.009.759-1.503 1.153-.121.097-.159.45-.096.599.211.499.612.856.931 1.275.505.663 1.15 1.058 1.95 1.275.435.118.821.122 1.231-.05.289-.121.5-.012.623.285.069.166.254.254.382.151.575-.46 1.28-.737 1.793-1.285.104-.111.252-.24.389-.252.625-.053 1.032-.484 1.52-.79.574-.36 1.117-.791 1.85-.855.432-.038.768-.314.957-.743.088-.199.282-.34.513-.287.523.119.902-.062 1.263-.444.185-.196.377-.382.579-.55a4.67 4.67 0 0 1 .277-.213c.45-.319.956-.542 1.554-.595.275-.153.554-.301.827-.458.091-.052.181-.106.27-.161.066-.041.082-.182.098-.281.023-.14.024-.284.035-.433 2.046.268 3.641-.481 4.89-1.961.151 0 .266-.028.359.005.32.116.622.103.912-.074.361-.219.718-.446 1.079-.665.588-.356 1.169-.723 1.769-1.057.465-.259.911-.533 1.284-.919l.09-.089c.459-.425 1.013-.573 1.644-.475.132-.136.253-.287.408-.389.216-.143.493-.2.69-.36.326-.264.601-.581 1.036-.696.116-.031.227-.212.276-.348.154-.433.426-.727.88-.824.335-.072.565-.259.722-.56.196-.376.576-.428.884-.041.3.378.576.763.605 1.265.023.4.212.711.523.937.479.348.892.738 1.099 1.316.065.183.347.217.555.09.133-.081.291-.163.366-.288.271-.451.506-.923.766-1.381.196-.345.199-.677.08-1.061-.202-.65-.454-1.293-.466-1.998zM16.641 98.226c-.104.241-.262.501-.248.744.062 1.07-.803 1.687-1.181 2.536-.296.22-.584.451-.889.657-.33.223-.333.482-.177.815.075.16-.066.343-.214.344-.211.002-.423-.002-.634-.011-.268-.01-.527.01-.756.172-.541.382-1.156.496-1.803.511-.206.005-.412.062-.562.086-.587-.271-1.106-.528-1.639-.753-.598-.252-1.089-.645-1.536-1.102a2.763 2.763 0 0 1-.701-1.22c-.256-.915-.552-1.819-.835-2.727-.11-.352-.207-.711-.354-1.048-.134-.308-.091-.593-.075-.913.023-.463-.148-.936.101-1.387-.169-.904.297-1.386 1.093-1.653.098-.033.187-.093.283-.142.268-.274.395-.626.465-.986.12-.615.461-1.051.97-1.387.175-.116.34-.257.483-.41.599-.642 1.36-.762 2.181-.707.053.004.107.006.157.02.988.278 1.984.19 2.979.062.33-.042.63.011.915.172.782.443 1.566.885 2.345 1.332.343.197.537.501.586.894.026.21.066.422.06.632-.015.485.361.902.254 1.388-.102.464-.289.909-.385 1.374-.191.939-.507 1.832-.883 2.707zM36.987 118.746zM36.946 118.788l.041-.042-.041.042z"/><path d="M1.182 93.326c.017.049.019.104.028.156-.051.056-.094.13-.147.179.054-.049.097-.123.147-.179-.009-.053-.011-.107-.028-.156zM355.976 77.687a3.528 3.528 0 0 1-.176-1.843c-1.274-.633-2.398-1.422-3.499-2.247a19.076 19.076 0 0 0-2.834-1.746c-.685-.347-1.394-.519-2.146-.305-.517.147-.91-.027-1.324-.314-1.274-.883-2.692-1.474-4.187-1.849a29.96 29.96 0 0 1-1.824-.527c-.502-.16-1.007-.415-1.516-.427-.936-.023-1.601-.506-2.222-1.084-.302-.281-.52-.66-.74-1.017-.167-.272-.086-.711.161-.862.504-.308.911-.719 1.314-1.14.73-.765 1.429-1.563 2.348-2.121.189-.115.272-.314.32-.528.035-.154.134-.315.111-.458-.058-.359.074-.59.344-.81.088-.071.094-.296.069-.438-.026-.148-.148-.276-.207-.421a.378.378 0 0 1 .219-.515c.652-.246.649-.246.77-.963.026-.153.056-.321.139-.447.299-.453.526-.913.319-1.472.242-.815.034-1.684.325-2.505.118-.331.078-.736.042-1.1-.083-.841-.208-1.679-.334-2.66-1.119-.535-1.717-1.684-2.48-2.695-.512-.14-.986-.325-1.429-.64-.728-.518-1.52-.913-2.421-1.115-.819-.183-1.621-.488-2.394-.824-1.274-.553-2.593-.874-3.964-1.068-.896-.127-1.777-.249-2.679-.102a2.297 2.297 0 0 1-1.1-.067 2.432 2.432 0 0 0-1.561.002c-.527.177-1.033.16-1.555-.011-.196-.064-.451-.134-.619-.063-.647.275-1.25-.009-1.869-.078-.267-.03-.538-.05-.768.105-.446.299-.898.251-1.363.071-.379-.147-.713-.092-1.028.183-.166.146-.391.123-.603.06-.351-.104-.705-.2-1.085-.307-.575.279-1.148.549-1.711.837-.186.095-.376.21-.514.362-.64.705-1.244 1.44-1.617 2.359.22.702.388 1.43.679 2.104.24.556.354 1.07.243 1.677-.133.727.098 1.357.764 1.777.171.108.397.2.416.437.021.269-.242.29-.4.411a.611.611 0 0 0-.218.391c-.031.368-.007.74-.016 1.11-.013.565.134 1.033.674 1.326.176.095.301.282.421.399-.011.426-.358.558-.528.813-.123.185-.231.412-.133.593.352.65.308 1.32.213 2.012-.103.75-.02 1.479.36 2.153.188.333.215.691.229 1.069.028.738.044 1.488.187 2.209.215 1.082.48 2.155.779 3.221.27.961.322 1.978.693 2.92.055.139.008.315.019.473.011.157.004.327.061.468.319.793.404 1.639.601 2.459.219.914.442 1.864 1.287 2.478.119.087.152.269.079.433-.136.304-.15.609-.022.922.824 2.005 1.628 4.02 2.568 5.974.228.475.518.921.793 1.372.178.293.45.437.799.412.263-.019.534-.009.785-.074.127-.033.262-.186.315-.316.078-.191.083-.411.124-.618.097-.48-.09-.955-.049-1.419.046-.514.278-1.009.359-1.524.142-.897.037-1.793-.115-2.683-.287-1.676-.744-3.306-1.456-4.848-.614-1.329-.658-2.762-.896-4.162-.008-.049.023-.103.028-.155.012-.138.2-.305.324-.289.104.013.214 0 .311.032 1.112.363 2.234.628 3.42.51.198-.02.424.042.61.127.305.14.593.181.918.079.361-.114.731-.089 1.096.012.407.112.813.235 1.226.32.568.117 1.142.202 1.713.301.569-.259 1.025.049 1.483.306 1.799 1.009 3.727 1.774 5.474 2.884a.95.95 0 0 0 .912.086c.411-.178.808-.162 1.237-.05a7.776 7.776 0 0 1 1.487.542c.38.187.756.382 1.126.588.334.185.689.313 1.063.245.776-.139 1.423.343 2.155.401.796.499 1.644.693 2.575.459.146-.037.319-.004.472.028.389.081.715.014 1.011-.28.075-.075.302-.039.442.003.416.123.771.34.974.749.143.289.35.523.609.72.89.676 1.839 1.248 2.887 1.642.245.092.509.158.768.173.128.007.337-.097.383-.205.17-.402.4-.72.786-.95.301-.179.344-.522.316-.848a2.347 2.347 0 0 0-.133-.609zm-22.761-14.155c-.283.23-.618.411-.955.555-.83.354-1.703.572-2.594.711-.425.066-.83.03-1.235-.164a12.893 12.893 0 0 0-1.477-.574c-.246-.083-.514-.104-.774-.14-.228-.031-.301.035-.429.335-.114.269-.256.363-.44.28a7.018 7.018 0 0 0-.127-.056c-.356-.156-.717-.305-.997-.57a1.493 1.493 0 0 1-.262-.326c-1.337-.66-1.347-.662-2.842-.627-.264.006-.555-.036-.785.061-.503.212-.937.045-1.371-.148-.536-.238-1.045-.528-1.35-1.061-.183-.319-.345-.651-.525-.994.086-.2.188-.386.248-.585.116-.378.082-.735-.238-1.014-.235-.205-.518-.363-.644-.626.012-.104-.002-.176.028-.206.525-.555.607-1.2.403-1.908-.029-.101-.029-.211-.056-.312a3.216 3.216 0 0 1-.075-1.393c.105-.648-.017-1.256-.621-1.692-.265-.191-.277-.465-.046-.677.258-.237.373-.489.372-.827-.001-.478-.015-.949-.168-1.411a1.463 1.463 0 0 1-.062-.623c.017-.136.144-.362.236-.369.882-.07 1.686-.544 2.628-.384a7.161 7.161 0 0 0 2.207.006c.415-.059.845-.015 1.269-.018.37-.003.744.025 1.109-.019.307-.038.604-.161.892-.242.321.132.617.244.905.374a2.83 2.83 0 0 0 1.548.251c1.191-.154 2.307.162 3.424.497.402.12.787.291 1.231.252.193-.017.415.077.596.173.934.497 1.861 1.006 2.784 1.523.322.18.632.385.937.595 1.13.778 1.606 1.928 1.803 3.226.031.203-.009.422-.043.628a6.748 6.748 0 0 1-.735 2.084 75.288 75.288 0 0 0-1.246 2.391c-.598 1.214-1.487 2.183-2.523 3.024zM288.844 82.753c-.255-.216-.54-.328-.877-.2-.099.038-.212.048-.3.103-.537.333-1.098.321-1.681.155a3.753 3.753 0 0 0-.623-.114c-.321-.034-.637-.02-.901.205-.298.254-.633.344-1.027.311-1.177-.099-2.318.114-3.445.431-.712.201-1.427.392-2.138.598-.252.073-.51.15-.737.277-.319.177-.587.485-.922.583-.338.099-.733-.012-1.101.01-.419.025-.839.051-1.221.288-.166.103-.396.117-.6.144-.208.028-.44-.028-.628.041-1.2.441-2.472.553-3.703.848-1.334.32-2.653.713-4.041.753-.207.006-.411.117-.619.132-.632.043-1.267.104-1.899.082-.922-.032-1.557-.737-1.555-1.653.002-.794.017-1.587.019-2.381.001-.329.096-.617.283-.889.595-.867.506-1.793.207-2.731-.313-.355-.251-.753-.215-1.19.064-.789.03-1.587.009-2.38-.005-.198-.099-.402-.186-.589-.108-.232-.427-.321-.433-.632-.007-.382.342-.504.528-.744.226-.292.537-.561.643-.893.246-.769.791-1.047 1.511-1.178.259-.047.511-.088.776-.106.577-.039 1.16-.09 1.723-.215 1.6-.355 3.197-.721 4.841-.811.39-.021.657-.227.889-.504l-.007.001v-.001h-.001l.001-.001-.003-.039.044-.002-.033.04c.82-.165 1.652-.179 2.478-.139l.182.01.178.011c1.134.073 2.208-.04 3.243-.545.62-.302 1.287-.482 1.997-.42.434.038.837-.074 1.224-.27a2.488 2.488 0 0 1 1.223-.279c.205.007.421-.06.617-.133.413-.154.754-.393.804-.883.037-.362.205-.589.592-.618.031-.002.086-.089.079-.128a.804.804 0 0 0-.101-.293c-.324-.504-.314-.5.029-.931.384-.482.379-.486-.046-1.115-.29.027-.606.038-.915.091-.516.088-1.024.23-1.542.296-.368.047-.732.069-1.084.209-.192.077-.413.143-.614.126-.806-.067-1.579.093-2.356.267-.308.069-.636.128-.945.095-.974-.102-1.88.191-2.801.415-.308.075-.619.135-.928.203-1.659.367-3.357.423-5.039.576-1.105.1-2.184.386-3.3.395-.253.002-.501.158-.758.214a4.6 4.6 0 0 1-.783.102c-.278.01-.507-.12-.687-.334-.21-.25-.353-.533-.353-.863 0-.476.004-.953.037-1.427.031-.441-.029-.833-.348-1.171-.214-.227-.144-.499.003-.73.112-.176.288-.309.41-.48.088-.124.178-.274.191-.419.055-.638.075-1.272-.459-1.766-.119-.11-.073-.313.082-.391.189-.095.374-.154.424-.406.04-.204.128-.401.215-.592.24-.526.641-.818 1.234-.845.633-.028 1.271-.041 1.897-.13 1.254-.179 2.494-.445 3.758-.581.734-.079 1.454-.271 2.202-.26.206.003.429-.038.617-.121.452-.2.923-.228 1.4-.204.911.046 1.794-.032 2.621-.464.343-.179.715-.214 1.076-.061.565.239 1.125.193 1.711.08.552-.106.907-.495 1.341-.777.332-.216.33-.525.275-.839-.073-.415-.203-.817-.491-1.174-.65-.312-1.313-.683-2.061-.718-.49-.023-.93-.157-1.385-.291-.96-.28-1.914-.614-2.943-.341a.838.838 0 0 1-.468-.042c-.575-.21-1.133-.117-1.716-.012-.723.129-1.476.087-2.16.436-.127.065-.312.046-.464.024a4.862 4.862 0 0 1-.775-.167c-.781-.244-1.556-.234-2.347-.039-.615.152-1.241.266-1.868.366-.574.091-1.154.145-1.733.204-.324.033-.516-.143-.641-.551-.044-.144-.093-.287-.135-.414-.084-.016-.147-.049-.182-.03-.231.127-.467.251-.682.402-.658.464-1.386.764-2.158.971-.663.178-1.324.365-1.989.537-.15.039-.327.086-.464.043-.757-.237-1.465.091-2.194.161-.375.036-.739.133-1.036.364-.386.301-.764.288-1.187.097-.365-.165-.725-.109-1.042.146-.493.397-.94.855-1.545 1.098-.089.036-.162.137-.219.223-.379.574-.758 1.147-1.123 1.73-.15.239-.141.519-.03.765.233.514.591.877 1.216.837.211-.013.423-.027.634-.03.325-.005.637.058.899.257.556.422 1.18.459 1.811.281.714-.202 1.478-.141 2.172-.442a.77.77 0 0 1 .467-.035c.721.193 1.461.222 2.195.316.338.043.56.295.645.625.066.255.084.522.129.782.352 2.015.356 2.016.108 4.015a21.006 21.006 0 0 0-.17 3.326c.018.527-.553.96-1.095.873-.259-.041-.527-.173-.77-.136-1.153.179-2.269.487-3.263 1.13-.132.086-.275.173-.373.291a56.342 56.342 0 0 0-1.387 1.728c-.135.177-.107.41-.006.604.209.401.535.667 1.001.674.74.011 1.481-.005 2.221-.016.331-.005.643-.123.854-.365.361-.414.741-.306 1.146-.125.457.204.787.539.955 1.009.124.348.263.706.294 1.068.057.676.125 1.372-.34 1.968-.171.219-.193.49-.194.755-.005 1.744-.229 3.488-.004 5.233.027.209.02.423.025.634.01.369-.029.747.037 1.106.083.45.587.588.811.944.04.064-.001.19-.027.281-.01.034-.082.065-.128.071a1.49 1.49 0 0 1-.313.008c-.798-.074-.82-.082-1.005.595-.085.312-.189.6-.363.87-.304.474-.391.976-.156 1.51a.819.819 0 0 1-.047.76c-.102.185-.216.365-.305.556-.096.205-.09.438.074.589.335.308.473.65.466 1.118-.007.437.286.794.635 1.053.296.22.624.399.945.584.769.441 1.569.547 2.444.327 1.229-.309 2.472-.561 3.712-.822.378-.079.68-.271.978-.497.117-.089.297-.187.422-.159.793.177 1.582.023 2.372.021.384-.001.722-.09 1.024-.347a.615.615 0 0 1 .431-.141c.506.072.923-.141 1.359-.336.723-.323 1.45-.644 2.194-.913 1.093-.395 2.203-.744 3.305-1.113l2.811-.944c.042-.167.071-.266.091-.367.074-.367.249-.539.498-.465.567.167 1.146.251 1.725.162.833-.128 1.675-.243 2.463-.563.88-.358 1.78-.679 2.539-1.283.251-.2.547-.318.884-.297.104.006.211-.014.315-.031.57-.093.701-.324.489-.861-.039-.098-.095-.19-.126-.29-.073-.233.111-.589.348-.627.201-.032.413-.026.616-.004.22.024.427.006.604-.123.738-.546.863-.983.087-1.641z"/><path d="m271.413 70.504-.001.001.007-.002.001-.001z"/><path d="m271.42 70.502-.001.001c.82-.166 1.652-.18 2.479-.14-.826-.039-1.658-.026-2.478.139zM271.42 70.502l.033-.04s-.036.036-.04.042l.007-.002zM271.412 70.503v.001zM461.004 23.588c-.156-.015-.331-.037-.469.016-.934.356-1.913.646-2.4 1.667-.12.251-.404.32-.689.288-.157-.018-.314-.041-.472-.048-.228-.009-.445.085-.53.281-.206.472-.54.776-1.028.911-.429.119-.741.377-.996.737-.275.386-.661.5-1.121.372-.205-.057-.428-.106-.613.025-.387.274-.764.563-1.13.865-.06.05-.067.194-.06.292.04.569.048.596-.434.652-.337.04-.615.161-.837.398-.578.615-1.188 1.207-1.7 1.874-.441.575-.939.982-1.651 1.136a.724.724 0 0 0-.553.521c-.128.466-.418.685-.884.784-.24.051-.478.227-.661.404-.609.586-1.22 1.174-1.781 1.806-.671.756-1.392 1.448-2.22 2.028-.26.182-.512.376-.761.571-.426.334-1.405 1.488-1.733 2.019-.166.269-.329.544-.526.791-.429.538-.851 1.079-1.171 1.693a1.75 1.75 0 0 1-.772.771c-.8.405-1.285 1.07-1.511 1.922-.057.214-.127.383-.305.523-.205.16-.449.319-.562.537a2.556 2.556 0 0 1-.942 1.037c-.202.126-.175.363-.146.578.004.027.006.054.008.08.005.078.005.156.009.234-.077.065-.146.171-.232.187-.6.117-1.054.439-1.449.9a24.722 24.722 0 0 1-1.418 1.496c-.455.447-.971.814-1.572 1.052-.306.121-.687.026-.839-.247-.154-.276-.319-.553-.416-.85-.123-.379-.359-.625-.686-.83a3.095 3.095 0 0 1-.585-.513c-.042-.045-.012-.211.041-.275.057-.068.178-.09.275-.117.495-.136.568-.203.567-.58-.001-.635-.022-1.27-.013-1.904.006-.436-.075-.833-.319-1.204-.074-.112-.105-.328-.046-.438.292-.55.224-1.122.147-1.692-.185-1.361-.404-2.716-.435-4.095-.03-1.367.208-2.744-.146-4.101-.035-.135.059-.302.087-.455.038-.207.074-.414.104-.623.074-.524-.126-.927-.553-1.228a9.876 9.876 0 0 1-.504-.378c-.138-.111-.172-.322-.052-.415.608-.473.79-1.08.615-1.818-.073-.307-.126-.62-.173-.933-.031-.209-.025-.423-.052-.632-.047-.356-.525-.622-.855-.478-.144.063-.299.121-.416.221-.281.24-.533.514-.813.756-.34.294-.513.649-.525 1.102-.004.161-.148.277-.327.287a3.424 3.424 0 0 1-.475-.006c-.299-.026-.503.124-.666.348a3.998 3.998 0 0 0-.254.402c-.11.196-.135.406.009.592.206.265.343.516.136.857-.145.239-.049.514-.019.775.109.952.423 1.852.705 2.758.104.336.034.585-.145.882-.342.567-.269.966.173 1.417.182.186.429.312.514.582-.523.791-.523.791-.686 1.711-.009.052-.02.104-.035.155-.112.379-.058.736.156 1.063.243.372.302.785.297 1.213-.007.687-.014 1.374-.036 2.061-.019.59.002 1.157.396 1.654.068.086.046.337-.032.426a1.287 1.287 0 0 0-.324 1.024c.037.367.078.735.148 1.096.182.932.435 1.845.819 2.67-.029.155-.024.271-.071.359-.503.927-.264 1.834.014 2.765.198.664.795.797 1.254 1.125a.515.515 0 0 1 .194.239.36.36 0 0 1-.043.286c-.057.074-.179.097-.27.147-.294.162-.358.273-.304.472.056.204.116.407.168.612.124.483.362.873.84 1.085.091.04.156.139.234.21.112.102.13.313-.006.41-.222.159-.434.321-.414.623.053.8.218 1.561.854 2.106-.095.383-.226.732-.261 1.09a4.006 4.006 0 0 0 .608 2.575c.16.255.369.355.662.3.635-.12.995.223 1.23.752.064.143.065.313.127.457.136.317.403.476.732.537.242.045.58-.167.602-.397.041-.419.067-.84.086-1.261.03-.672-.118-1.262-.771-1.615-.086-.047-.14-.153-.209-.231-.153-.174-.063-.42.185-.48.254-.061.509-.116.78-.177.378-.658.577-1.367.767-2.078.085-.316.044-.625-.068-.932-.149-.409-.38-.755-.731-1.014-.17-.126-.349-.239-.522-.36-.13-.09-.259-.181-.386-.276-.121-.09-.197-.345-.116-.406.079-.059.185-.146.264-.132.446.077.845.072 1.094-.396a.5.5 0 0 1 .229-.212c.425-.177.642-.535.825-.921.113-.238.207-.485.309-.728 0 0-.042.032-.04.029l.004-.005-.002.001c.216-.235.448-.458.652-.702.031-.038.062-.075.092-.114.646-.835 1.27-1.687 1.908-2.529.447-.589.909-1.167 1.352-1.76.316-.423.614-.85.636-1.419.008-.19.157-.386.271-.559.204-.308.436-.598.646-.902.112-.162.234-.319.352-.477l.116-.16c.152-.215.288-.441.374-.697l.669-.413c.223-.138.445-.276.666-.417.178-.113.338-.256.516-.368.312-.197.627-.393.951-.569.441-.239.827-.169 1.128.205.397.494.78.999 1.169 1.5.326.42.68.808 1.165 1.056.349.178.552.45.626.855.033.182.216.357.369.493.196.173.423.314.649.45a6.956 6.956 0 0 1 2.668 2.859c.217.429.482.814.877 1.104.217.159.376.373.418.649.051.331.246.579.462.813.466.504.912 1.032 1.414 1.498.362.336.61.722.788 1.168.214.54.419 1.083.629 1.624.334.859.81 1.595 1.668 2.03.292.148.515.397.521.743.009.565.385.836.804 1.08a.359.359 0 0 0 .439-.042c.115-.104.225-.222.305-.353.648-1.055.988-2.211 1.101-3.437a.593.593 0 0 0-.26-.545 3.485 3.485 0 0 1-.359-.307c-.17-.167-.172-.341.096-.51.327-.206.381-.484.347-.814-.055-.536-.283-1.01-.545-1.474-.128-.226-.275-.468-.305-.716-.082-.679-.463-1.169-.923-1.615-.302-.293-.634-.555-.971-.848-.053-.194-.104-.397-.163-.598-.153-.516-.365-.977-.872-1.268-.216-.124-.357-.379-.534-.574-.319-.35-.618-.722-.963-1.044-1.042-.976-2.095-1.937-2.963-3.082a4.611 4.611 0 0 0-1.707-1.389 6.259 6.259 0 0 1-.69-.381c-.228-.147-.354-.292-.106-.662.129-.191.228-.374.06-.566-.248-.283-.483-.55-.423-.973.039-.281-.145-.506-.295-.716-.151-.211-.353-.386-.532-.578a.573.573 0 0 1-.119-.593c.121-.345.251-.701.454-1 .474-.699.984-1.374 1.499-2.045.123-.161.31-.279.484-.393.265-.173.538-.335.818-.483a1.4 1.4 0 0 0 .708-.804c.151-.422.476-.689.931-.771 0 0-.035-.044-.031-.042.332.043.555-.026.62-.22l.011-.041c.051-.244.055-.498.082-.762l1.353-.467c.106-.097.192-.16.26-.24 1.102-1.295 2.32-2.454 3.788-3.335.172-.103.308-.281.433-.445.145-.192.334-.28.547-.224.491.13.941-.062 1.406-.137.444-.072.796-.32 1.026-.686.364-.58.677-1.191 1.016-1.787.116-.204.07-.41.015-.614a.416.416 0 0 1 .12-.433c.731-.659.999-1.603 1.498-2.405.18-.288-.143-.786-.51-.821z"/><path d="M432.36 49.352c-.004-.078-.004-.157-.009-.234.006.077.005.156.009.234-.077.065-.146.171-.232.187.086-.016.155-.122.232-.187zM436.327 49.163l-.116.16.116-.16zM436.327 49.163c.152-.215.288-.441.374-.697l.669-.413-.669.413a2.704 2.704 0 0 1-.374.697zM430.303 57.784c.217-.236.447-.458.65-.701-.204.244-.436.467-.652.702l.002-.001zM245.482 87.723c-.199-.924-.564-1.812-.852-2.718-.167-.526-.458-.944-.967-1.194-.089-.044-.15-.145-.225-.219-.097-.096-.097-.341.045-.41.472-.231.546-.584.414-1.051-.1-.355-.158-.722-.237-1.083-.136-.618-.26-1.24-.417-1.853a2.589 2.589 0 0 0-.476-.995c-.107-.133-.111-.306.01-.424.215-.209.272-.421.158-.706-.137-.342-.238-.699-.361-1.048a1.061 1.061 0 0 1 .019-.764c.145-.393.23-.809.339-1.216.139-.521.155-1.024-.056-1.549-.112-.278-.093-.624-.069-.935.024-.313.13-.619.193-.93.067-.331.035-.655-.273-.848-.871-.546-1.055-1.402-1.091-2.331a5.826 5.826 0 0 1 .013-.793c.217-2.218.085-4.442.129-6.662.007-.374-.041-.73-.216-1.074a.403.403 0 0 1 .159-.551c.424-.259.55-.664.431-1.096-.131-.479-.106-.918.008-1.394.083-.35.027-.734.025-1.103-.003-.557-.168-1.036-.662-1.355-.042-.027-.069-.079-.102-.12-.122-.152-.088-.435.085-.56.248-.18.575-.267.591-.671.008-.202.113-.4.166-.602.035-.131-.156-.291-.328-.268-.207.028-.425.038-.615.114-.544.218-1.024.547-1.48.913a4.702 4.702 0 0 0-1.535 2.173c-.107.31-.183.637-.029.925.226.423.163.805-.009 1.214-.373.886-.48 1.841-.646 2.773a23.841 23.841 0 0 0-.319 2.994c-.05.998-.035 2.001-.065 3.001-.01.319.027.634.219.909.16.228.126.503.186.754.184.769.124 1.578.416 2.328.13.333-.034.621-.252.867-.466.524-1.04.895-1.689 1.151-.54.214-1.087.412-1.627.627-.395.158-.767.338-.992.744-.104.188-.338.279-.553.245-.803-.129-1.445.171-2.024.692-.195.176-.429.308-.637.471-.261.204-.552.316-.881.298-.458-.025-.814.183-1.143.467-.524.451-1.077.872-1.733 1.099-1.078.373-1.66 1.254-2.282 2.106-.055.547-.458.809-.873 1.056-.435.258-.712.616-.79 1.126-.014.093-.109.174-.174.271-.465.06-.924.137-1.242.566-.12.162-.309.3-.495.381a6.693 6.693 0 0 0-1.857 1.196c-.149.136-.363.26-.557.276-.522.042-1.05.03-1.575.015-.069-.002-.183-.14-.192-.224-.029-.258-.076-.536-.011-.778.253-.946.261-1.877-.046-2.81-.049-.148-.041-.314-.063-.471-.111-.787-.235-1.564-.808-2.188-.077-.084-.044-.3-.013-.445.031-.15.176-.288.176-.432.006-1.316.203-2.642-.193-3.94-.093-.306-.114-.621.055-.923.148-.264.083-.505-.115-.72-.162-.176-.222-.386-.007-.532.4-.272.295-.654.232-1-.046-.251-.221-.476-.324-.719-.234-.55-.39-1.261-.299-1.835.123-.782-.082-1.34-.847-1.657-.239-.099-.455-.266-.661-.427-.067-.052-.107-.191-.092-.279.013-.083.103-.198.179-.216.148-.036.31-.008.466-.016.284-.014.435-.144.401-.363-.137-.884-.27-1.77-.429-2.65-.094-.524-.682-.692-1.121-.338-.326.263-.569.629-.998.764-.146.046-.277.149-.408.236-.257.169-.308.481-.108.677.188.184.4.346.575.541.052.058.049.209.012.29-.037.081-.143.172-.229.182a3.68 3.68 0 0 1-.63.004c-.376-.02-.558.182-.707.507-.21.458-.268.882-.074 1.37a9.62 9.62 0 0 1 .438 1.521c.099.457.364.74.753.959.364.206.713.441 1.063.671.031.02.048.103.033.142-.035.09-.082.233-.145.245-.201.039-.413.026-.62.039-.183.011-.342.2-.254.32.315.431.387.822-.022 1.256-.122.13-.13.395-.137.6-.014.422.007.846.013 1.269.006.389.126.738.439.979.345.266.248.526.057.819-.053.082-.063.197-.078.298a.236.236 0 0 0 .04.148c.204.32.063.582-.092.88-.366.702-.18 1.418.508 1.746.143.068.275.158.409.244.088.057.168.124.252.187.116.087.14.312.032.429-.234.253-.643.405-.429.894.052.119-.005.326-.079.452-.396.669-.436 1.404-.437 2.15-.001.688.001 1.376-.003 2.064-.008 1.168.033 2.327.412 3.451.1.298.161.62.175.934.021.455.239.796.503 1.136.159.206.142.337-.095.528-.385.311-.352.531-.081.768.198.174.427.311.635.474a.424.424 0 0 1 .099.567c-.134.233-.262.432-.171.729.092.3.08.632.173.932.104.339 0 .608-.135.905-.049.108.053.289.099.432.014.044.074.072.109.109.363.382.363.382.119.919-.021.047-.034.099-.067.194.044.164.093.369.153.57.201.674.492 1.275 1.155 1.634.266.144.28.428.187.7-.121.354.054.635.263.865.246.27.554.483.824.711.016.122.034.223.04.325.01.154-.036.336.032.456.069.123.234.223.378.265.455.134.915.261 1.382.343.358.064.729.149 1.094.012.04-.015.077-.066.094-.108.017-.044.03-.116.006-.145-.098-.12-.195-.25-.321-.337-.215-.149-.485-.237-.581-.509-.028-.08-.008-.236.048-.275a.971.971 0 0 1 .428-.169c.64-.072.903-.491.999-1.059.044-.259.036-.527.057-.79.032-.393-.098-.7-.387-.986-.27-.267-.258-.399.036-.642.288-.239.369-.485.247-.827-.16-.447-.273-.919-.765-1.148a.673.673 0 0 1-.229-.213.36.36 0 0 1-.004-.439c.086-.128.201-.237.303-.355-.036-.099-.062-.202-.109-.293-.049-.092-.134-.167-.176-.261-.069-.155-.05-.298.125-.381l.271-.131c.11-.43.106-.809-.087-1.112a1.038 1.038 0 0 0-.137-.171l-.002-.002a1.121 1.121 0 0 0-.088-.079l-.049-.038a1.425 1.425 0 0 0-.293-.17c-.183-.084-.323-.265-.474-.411-.029-.028-.031-.107-.016-.153s.061-.105.103-.114c.206-.042.423-.046.622-.108.45-.14.706-.638.551-1.114-.074-.229-.099-.458.098-.564.717-.385 1.233-.976 1.76-1.57a47.694 47.694 0 0 1 3.465-3.487c.153-.14.326-.27.512-.36.57-.278 1.136-.573 1.73-.787.506-.183.955-.448 1.405-.725.414-.255.747-.571.885-1.07.079-.283.338-.438.62-.354.447.132.826.063 1.186-.216.209-.161.409-.351.646-.456a157.96 157.96 0 0 1 3.791-1.617c.388-.159.801-.29 1.215-.349 1.125-.161 1.192.027 1.466.954.165.556.313 1.119.428 1.687.135.667.457 1.166 1.085 1.463.237.112.459.262.67.419.07.052.098.176.122.273.03.122-.124.268-.308.288-.156.017-.32-.011-.467.028-.071.019-.173.163-.158.225.202.818.408 1.636.645 2.444.135.461.368.872.787 1.156a.907.907 0 0 1 .415.65c.09.799.494 1.369 1.185 1.771.22.128.4.335.571.529.044.05.017.213-.035.281-.056.074-.181.094-.271.146-.257.147-.325.323-.199.493.062.084.135.161.209.235.245.245.376.5.142.835-.133.191-.095.405.012.598.208.378.358.748.211 1.205-.057.177.025.417.091.612.207.605.535 1.146.94 1.639.033.04.082.065.119.102.105.106.327.054.406-.081.387-.662.322-1.433.518-2.142.034-.123-.065-.305-.146-.432-.111-.176-.27-.322-.396-.49-.122-.162-.078-.398.149-.526.258-.146.427-.294.302-.613-.077-.197-.147-.391-.037-.608.356-.695.265-1.452.114-2.154z"/><path d="m219.469 91.766-.271.131.271-.131c.11-.43.106-.809-.087-1.112.193.303.197.681.087 1.112zM219.242 90.481l.002.002-.002-.002zM98.672 129.732c-.713-.163-1.37-.037-1.925.449-.236.206-.397.502-.643.689-.244.185-.536.285-.783.503-.802.706-1.704 1.239-2.823 1.262-.105.002-.208.041-.313.049-1.038.082-1.931.519-2.744 1.135-.63.477-1.241.981-1.859 1.473-.457.363-1.532.766-2.192.746-.55-.017-1.043.124-1.524.357-.285.138-.56.303-.856.411a2.589 2.589 0 0 1-.768.158c-.82.035-1.403-.682-1.171-1.464.118-.398.297-.752.289-1.204-.009-.585.742-.452 1.02-.874.285-.432.695-.78.836-1.312.053-.202.123-.406.225-.587.259-.46.533-.902.548-1.463.005-.186.154-.394.288-.547.313-.358.661-.684.986-1.032.489-.523.639-1.204.808-1.864.084-.329-.247-.566-.337-.866-.015-.048-.032-.11-.014-.151.04-.09.084-.198.16-.247.081-.052.2-.051.303-.062.104-.011.213.006.315-.012.17-.029.358-.313.317-.486a.99.99 0 0 0-.129-.276c-.268-.444-.269-.443.221-.548.277-.06.414-.212.304-.419-.212-.401-.182-.809-.157-1.233.043-.728-.251-1.342-.729-1.866-.136-.149-.334-.258-.524-.338-1.499-.63-3.013-.546-4.467.081-1.014.437-1.955.295-2.918-.045-.45-.159-.658-.751-.451-1.198.314-.679.734-1.285 1.299-1.779.361-.315.754-.601.626-1.173.447-.617.465-1.533 1.339-1.862.17-.064.289-.298.401-.474.68-1.075 1.465-2.07 2.288-3.036.171-.201.345-.401.501-.614.319-.435.519-.914.527-1.466.007-.461-.129-.979.428-1.26.039-.02.071-.088.075-.136.06-.684.145-1.37-.314-1.975-.114-.15-.119-.287-.068-.415a.977.977 0 0 1 .181-.272l-.023.022c-.003-.053.005-.108-.009-.158-.253-.909-.641-1.197-1.475-.958a5.296 5.296 0 0 1-1.724.183 3.517 3.517 0 0 0-2.235.661c-.128.089-.259.174-.402.27-.841-.012-1.685.009-2.515.185-1.136.242-2.271.49-3.408.729-.411.086-.838.097-1.185.399-.102.088-.299.106-.447.095-.317-.025-.63-.07-.941.039-.315.111-.623.072-.927-.052-.195-.08-.396-.146-.589-.232-.411-.183-.831-.171-1.237-.022-.991.363-1.973.747-2.958 1.126-.172.066-.249.395-.126.541.1.119.206.235.319.341.19.18.398.341.574.533.045.049.008.186-.013.278-.008.035-.08.081-.121.079-.155-.005-.31-.031-.465-.043a1.616 1.616 0 0 0-.311-.002c-.043.005-.111.055-.115.09-.011.095-.033.224.017.285.337.415.872.554 1.26.931.902.878 2.026 1.066 3.239.815.361-.075.723-.17 1.089-.197.996-.075 2.006-.019 2.968-.37a.309.309 0 0 1 .157-.008c.609.122 1.134-.169 1.686-.333.302-.09.603-.209.912-.243.957-.108 1.669.552 1.38 1.562-.158.553-.384 1.089-.404 1.802-.729.171-1.101.834-1.566 1.406-.333.409-.696.794-1.034 1.2-.133.16-.305.334-.337.522-.076.454-.371.743-.643 1.065-.132.156-.291.358-.295.543-.017.653-.394 1.082-.837 1.466-.85.738-1.501 1.633-2.076 2.586-.225.373-.488.67-.857.907-.305.196-.564.466-.824.723-.057.057-.076.216-.039.293.09.186.258.338.332.528.092.237.058.544.197.737.142.198.428.289.647.434.375.247.56.631.683 1.038.162.537.595.752 1.06.849.658.138 1.357.317 1.912-.303.028-.032.102-.043.149-.034.672.136 1.232-.191 1.805-.446.133-.059.305-.186.33-.309.098-.465.33-.613.786-.472.364.113.707.06 1.071-.102.379-.169.808-.228 1.219-.319.091-.02.198.03.359.059l.419.608c.253.37.329.757.196 1.202-.162.54-.083 1.16-.631 1.561-.148.109-.21.358-.274.555-.114.351-.228.707-.288 1.07-.065.39-.18.713-.594.842-.381.436-.746.887-1.148 1.303-.277.287-.419.584-.37.99.034.278-.121.503-.333.683-.12.102-.258.191-.351.314-.413.55-.374.881.137 1.349.116.106.252.2.34.326.04.057-.004.184-.032.271-.011.033-.091.071-.13.063-.308-.062-.611-.16-.921-.19-.127-.012-.315.084-.391.191-.182.254-.302.552-.47.817-.188.296-.169.603-.09.915.095.377.319.668.654.86.596.342 1.201.667 1.796 1.009.275.158.321.324.232.665-.148.565-.109.676.256.928.573.395 1.213.641 1.862.867.258.09.526.093.774-.02.355-.161.703-.203 1.073-.057.628.248 1.244.149 1.856-.075.394-.144.786-.326 1.195-.391.491-.078.896-.293 1.289-.564l-.033.044c1.155-.4 2.219-.993 3.297-1.554l.277-.143c.186-.095.373-.207.525-.349.821-.763 1.789-1.307 2.746-1.868.135-.079.276-.163.382-.275a.32.32 0 0 0 .053-.278c-.125-.332.051-.523.314-.618.592-.215 1.248-.306 1.786-.61.588-.333 1.072-.849 1.603-1.284.082-.067.175-.121.253-.192.117-.106.255-.205.332-.337.487-.838 1.239-1.438 1.879-2.139.176-.193.33-.412.458-.639.242-.434-.071-1.224-.517-1.326zm-17.934-3.759c-.229.095-.487-.021-.576-.276-.017-.05.067-.189.124-.202.262-.061.511.12.532.361-.026.041-.043.102-.08.117z"/><path d="m85.26 104.478-.013.012a1 1 0 0 0 .013-.012zM85.282 141.345c1.156-.402 2.22-.994 3.299-1.556-1.078.562-2.142 1.154-3.297 1.554l-.002.002zM384.21 58.226c.193-.434-.03-.688-.281-.98-.236-.274-.199-.37.133-.603.303-.213.372-.41.193-.614-.173-.197-.372-.371-.555-.56-.238-.246-.247-.415.046-.635.229-.173.378-.366.407-.642.022-.21.028-.423.021-.633-.012-.394-.162-.711-.521-.917-.32-.184-.63-.384-.938-.587-.156-.103-.133-.442.033-.552a1.41 1.41 0 0 1 .282-.143c.363-.135.433-.431.431-.767-.002-.268-.045-.525-.194-.757-.201-.311-.373-.644-.6-.934-.337-.43-.488-.923-.565-1.454-.313-.219-.619-.425-.914-.644-.176-.131-.323-.322-.277-.538.1-.47-.096-.815-.371-1.157-.597-.743-1.179-1.496-1.772-2.241-.608-.763-1.356-1.311-2.303-1.611-.805-.254-1.584-.592-2.374-.894-.247-.094-.49-.197-.738-.288-.713-.264-1.43-.342-2.177-.119-.556.166-1.126.292-1.695.406-.647.129-1.194.401-1.606.932a1.784 1.784 0 0 1-.464.424c-.589.362-1.139.769-1.621 1.268a1 1 0 0 1-.403.241c-1.172.366-2.191 1.052-3.297 1.557a3.48 3.48 0 0 0-1.348 1.081c-.447.59-.878 1.194-1.331 1.78-.29.376-.545.827-.926 1.076-.758.494-1.118 1.25-1.55 1.971-.11.184-.203.383-.132.599.078.24.029.39-.201.516-.18.099-.382.225-.48.393a21.446 21.446 0 0 0-.884 1.686c-.086.181-.107.41-.097.614.019.391-.074.742-.314 1.039-.319.395-.414.843-.406 1.334.006.334-.095.628-.403.808-.502.294-.692.791-.809 1.309-.093.41-.061.849-.163 1.256-.148.594-.034 1.154.088 1.724.07.325.237.587.476.805.156.143.332.263.49.404a.333.333 0 0 1-.068.535c-.442.236-.583.584-.526 1.051.006.052.001.107.01.158.128.725.411 1.424.342 2.181-.009.095.055.203.102.297.401.798.682 1.672 1.448 2.238.172.127.258.327.282.548.108.991.61 1.781 1.275 2.486.515.545 1.131.952 1.8 1.284 1.281.637 2.599 1.182 3.975 1.582 1.746.508 3.502.799 5.31.308.3-.082.632-.092.945-.072.623.04 1.135-.195 1.598-.568.054-.043.073-.242.035-.27a7.996 7.996 0 0 0-.916-.614 499.631 499.631 0 0 0-4.881-2.653c-.885-.474-1.776-.934-2.762-1.187-.459-.118-.92-.343-1.214-.721-.765-.983-1.73-1.688-2.833-2.235-.23-.114-.208-.357.029-.637.033-.039.087-.061.118-.101.106-.139.096-.347-.02-.433-.168-.126-.334-.255-.509-.368-.265-.172-.546-.322-.804-.503-.07-.049-.123-.185-.111-.27.011-.079.109-.174.19-.207.192-.078.436-.073.589-.192.24-.187.109-.479.097-.737-.021-.475-.081-.962 0-1.423.114-.65-.045-1.138-.57-1.521a.21.21 0 0 1-.079-.132c-.01-.098-.041-.243.009-.289.597-.55.947-1.258 1.253-1.984.245-.582.553-1.162.542-1.81-.007-.394.109-.718.279-1.051.264-.517.588-1.014.667-1.604.065-.485.195-.909.62-1.222.153-.112.242-.349.298-.546.151-.53.498-.92.844-1.325a8.583 8.583 0 0 1 1.918-1.652c.378-.242.669-.484.761-.947a1.08 1.08 0 0 1 .301-.546c.814-.758 1.643-1.498 2.719-1.882 1.354-.483 2.764-.694 4.182-.854.427-.048.84.033 1.223.256.864.502 1.876.727 2.645 1.418.146.131.382.17.581.235.271.087.446.271.567.517a.697.697 0 0 0 .475.382c.204.053.432.063.608.165.869.504 1.725 1.029 2.583 1.552.172.105.165.433-.011.547-.217.139-.443.263-.646.381.056 1.002.348 1.809 1.299 2.226.044.019.094.066.105.11.024.096.055.207.026.293a.471.471 0 0 1-.196.234c-.372.222-.415.563-.421.955-.011.734.182 1.353.81 1.794.078.055.111.173.195.313-.047.162-.136.359-.158.562-.047.433-.084.848-.605.995-.076.021-.163.16-.168.249-.028.428-.15.826-.298 1.225-.094.253-.057.517.073.767.095.183.164.38.247.579-.148.13-.266.228-.378.332-.433.404-.401 1.031.081 1.343.265.172.555.306.828.467.273.161.541.329.806.503.18.118.299.386.244.541-.081.229-.299.266-.491.352-.385.171-.707-.159-1.134-.105-.352.507-.949.748-1.506 1.05-.196.106-.262.286-.179.535.065.196.226.4.07.584a1.109 1.109 0 0 1-.522.345 3.387 3.387 0 0 1-.936.103c-.461-.012-.815.19-1.14.473-.119.104-.261.211-.32.348-.297.686-.929.99-1.501 1.367-.353.232-.709.461-1.048.713-1.74 1.296-3.63 1.922-5.804 1.346-.203-.054-.416-.071-.626-.088a.988.988 0 0 0-.309.041c-.037.009-.077.063-.086.103-.01.044-.002.119.027.14.3.212.592.444.914.618 1.303.705 2.617 1.39 3.925 2.085.373.199.744.403 1.109.616.276.161.338.396.115.656-.186.216-.32.411-.237.701.138.481-.105.812-.435 1.113-.033.03-.038.091-.087.221.371.192.659.325.931.485.778.455 1.499.472 2.146-.236.035-.038.084-.064.13-.09 1.22-.706 2.081-1.783 2.946-2.854.2-.248.398-.511.365-.852-.035-.363.161-.435.462-.484.11-.018.289-.225.273-.315-.081-.432.029-.731.462-.866.264-.082.461-.243.638-.447.735-.849 1.358-1.757 1.578-2.888.055-.286.247-.479.533-.513.527-.061.705-.395.754-.862.038-.364.242-.752.053-1.089-.304-.542-.16-1.005.089-1.497.143-.281.236-.588.345-.885.097-.265.048-.519-.082-.763-.05-.093-.104-.185-.141-.284-.077-.202.005-.347.275-.471.095-.044.209-.052.296-.106.409-.256.43-.779.044-1.058-.128-.093-.278-.155-.408-.246-.691-.479-.685-.518-.06-1.085.347-.314.592-.743 1.072-.907.052-.018.097-.196.072-.276-.083-.246-.338-.472-.222-.734zM54.646 65.895l-.002-.001.001-.004-.001.003-.001.014.003.002a.033.033 0 0 1 0-.014z"/><path d="M65.151 100.561c.132-.184.33-.297.547-.229.493.156.938.016 1.381-.168.879-.365 1.757-.731 2.632-1.105.241-.103.495-.206.696-.368.428-.343.936-.481 1.439-.637.201-.062.419-.069.616-.138.263-.093.454-.255.397-.587-.016-.096.031-.202.056-.338.147.007.301 0 .449.025.817.138 1.597.024 2.282-.438.665-.448 1.535-.412 2.15-.974.131-.12.403-.125.607-.119.613.02 1.138-.184 1.618-.548.081-.062.191-.086.357-.157.194.011.458.014.719.044.655.076 1.271-.096 1.849-.357.576-.26 1.116-.602 1.661-.926a.94.94 0 0 0 .44-.637 4.195 4.195 0 0 0-.009-1.732c-.067-.298-.359-.538-.695-.546-.688-.015-1.376-.013-2.063-.028-1.494-.033-1.529-.019-2.59 1.156-.092 0-.203.023-.299-.004-.359-.102-.698-.168-1.081-.039-.701.236-1.435.374-2.129.625-.688.248-1.428.343-2.074.716a.758.758 0 0 1-.453.095c-.436-.065-.824.018-1.228.198-.331.148-.711.195-1.074.258a.831.831 0 0 1-.459-.044c-.962-.439-1.612-1.638-1.3-2.619a7.19 7.19 0 0 0 .243-.919.752.752 0 0 0-.076-.454c-.125-.231-.322-.423-.442-.656-.065-.127-.099-.342-.035-.451.396-.672.338-1.303-.087-1.933-.052-.077-.033-.202-.055-.357.135-.18.29-.392.45-.6.365-.474.82-.784 1.415-.953 1.015-.288 1.997-.695 3.013-.979 1.763-.493 3.265-1.479 4.79-2.431.044-.027.078-.071.117-.105.214-.186.268-.648.085-.876-.098-.122-.238-.208-.343-.325-.179-.2-.181-.346-.017-.561.096-.125.215-.234.311-.359a.765.765 0 0 0 .165-.589c-.022-.156-.202-.237-.528-.237-.478 0-.945.015-1.392.239-.569.285-1.158.506-1.819.493a.838.838 0 0 0-.561.249c-.258.274-.506.454-.906.532-.392.077-.721.45-1.115.556-.447.12-.943-.036-1.405.141-.145.056-.314.045-.468.083-.768.194-1.525.449-2.304.581-1.618.274-3.209.664-4.798 1.056-.731.18-1.445.237-2.192.235a2.113 2.113 0 0 1-1.559-.638 10.815 10.815 0 0 1-.847-.942c-.297-.369-.566-.761-.865-1.167.061-.132.103-.283.191-.401.25-.334.272-.677.08-1.037-.149-.278-.317-.547-.466-.825-.08-.15.011-.428.147-.579.231-.256.521-.375.851-.333.475.062.94.139 1.398-.087 1.857-.916 3.822-1.539 5.8-2.123.32-.095.566-.263.793-.494.223-.227.465-.451.804-.469.81-.044 1.379-.467 1.831-1.101.09-.126.226-.219.375-.359.235.011.505.074.75.022.304-.065.59-.22.879-.348.241-.106.476-.229.713-.344.315-.152.476-.396.487-.751.013-.385.254-.547.611-.591a2.93 2.93 0 0 0 .459-.105c.128-.037.245-.279.187-.397-.137-.28-.287-.555-.432-.832.126-.296.256-.584.371-.879.076-.193-.111-.423-.321-.445-.401-.043-.757.077-.993.383-.364.472-.766.862-1.367.995-.4.422-.93.435-1.458.494-.916.102-1.755.387-2.348 1.216-1.114-.029-2.171.345-3.257.555-1.717.333-3.399.786-4.929 1.678-.181.105-.387.173-.587.241-.409.139-.83.161-1.253.087-.331-.058-.634-.223-.727-.542-.293-1.011-.759-1.985-.716-3.074.015-.4-.136-.71-.435-.973-.269-.236-.304-.503-.132-.846.222-.442.153-.674-.221-.938-.254-.179-.54-.314-.812-.468-.027.254-.074.496-.198.703a1.035 1.035 0 0 1-.232.268c-.205.167-.391.36-.609.505-.372.248-.674.513-.517 1.023.013.043-.014.104-.036.15a.323.323 0 0 1-.093.127c-.233.164-.359.379-.344.669.016.323.088.618.299.883.149.187.471.261.418.593-.104.008-.205.036-.299.019-.155-.027-.304-.092-.459-.125-.323-.07-.548.111-.502.399.274 1.723.651 3.424 1.055 5.12.196.822.402 1.639.695 2.436.2.542.284 1.126.448 1.683.224.759.313 1.56.676 2.275.2.395.264.784.173 1.225-.038.182.041.428.148.591.406.618.837 1.221 1.275 1.817.392.534.92.887 1.581.96 1.051.116 2.106.199 3.161.277.422.031.838-.04 1.257-.13a9.963 9.963 0 0 1 1.568-.2c.563-.029 1.007.258 1.381.662.095.103.082.346-.036.418-.089.055-.19.09-.287.133-.208.091-.378.234-.327.475.197.927.263 1.876.54 2.792.175.578.393 1.084.911 1.428.131.087.103.262-.097.38-.202.118-.336.242-.312.486.01.105.021.211.041.315.107.56-.158.911-.64 1.137-.43.202-.859.408-1.298.589-.341.141-.694.257-1.047.368-.467.147-.882.355-1.135.803a1.2 1.2 0 0 1-.199.246c-.274.279-.585.456-.992.312-.409-.145-.825-.193-1.241-.05-.082.028-.169.136-.19.222-.022.093.041.202.05.306.024.292-.094.454-.314.394-.89-.239-1.79-.067-2.684-.08-.348-.005-.59.205-.734.515-.089.191-.182.385-.235.588-.07.269-.028.54.2.723a84.767 84.767 0 0 0 2.248 1.757c.442.33.958.448 1.506.33.309-.067.615-.155.915-.254.25-.082.487-.264.737-.28.768-.05 1.418-.383 2.068-.741.284-.156.587-.23.916-.191.157.019.318.016.475.004.327-.02.621-.111.825-.397zM54.644 65.894l.002.001.001-.011-.003.006zM54.446 66.612z"/><path d="M54.64 65.898v.001-.001s0-.001 0 0l-.004.007.005.003.001-.014a.008.008 0 0 1-.002.004zM121.35 92.575c-.152-.044-.311-.06-.466-.095-.412-.092-.611-.39-.712-.766a1.913 1.913 0 0 1-.061-.471c-.019-1.639-.057-3.279.186-4.909.07-.469.09-.946.114-1.42.075-1.487-.174-2.944-.374-4.425-.321-.211-.629-.412-.934-.616-.13-.087-.27-.169-.376-.281-.062-.066-.109-.201-.084-.279.024-.075.147-.156.233-.165.251-.026.544.134.746-.098.255-.292.067-.595-.05-.887-.118-.294-.271-.58-.344-.885-.203-.85-.551-1.587-1.331-2.067-.171-.106-.273-.32-.418-.473-.38-.4-.85-.639-1.4-.656-.634-.02-1.269.002-1.903.019-.155.004-.34.016-.459.1-.652.456-1.583.279-2.139.953-.057.069-.193.108-.289.103-.751-.039-1.333.239-1.753.869a.577.577 0 0 1-.551.258c-.522-.081-.931.14-1.31.433-.417.323-.818.669-1.209 1.024-.469.427-.912.882-1.38 1.309-.207.189-.308.419-.382.676-.047.161-.15.278-.325.305a1.23 1.23 0 0 0-.695.351c-.523.518-1.124.972-1.383 1.707-.079.224-.287.293-.503.323-.377.054-.486.303-.57.646-.106.438.134.82.121 1.202-.116.246-.343.272-.521.375-.226.132-.476.25-.652.435-1 1.052-1.785 2.247-2.047 3.692a15.274 15.274 0 0 1-.556 2.142c-.154.46-.234.919-.179 1.401a6.44 6.44 0 0 1-.204 2.509c-.279.997-.066 1.98.237 2.959.248.801.713 1.399 1.362 1.89.039.029.057.087.137.217.043.326.064.751.166 1.156.061.244.231.468.384.677.09.123.239.206.371.294 1.635 1.086 3.427 1.882 5.161 2.785.047.024.098.04.148.055.479.142.938.175 1.319-.236.201-.217.445-.282.713-.152.824.401 1.717.509 2.608.627.327.044.624-.003.849-.295.127-.165.284-.316.455-.436a.614.614 0 0 1 .606-.053c.353.155.592.438.746.784a.4.4 0 0 1-.01.3c-.067.139-.197.248-.268.386-.297.572-.09 1.199.475 1.471.095.046.186.107.287.133.511.132 1.022.263 1.536.377.778.173 1.148-.008 1.553-.74.077-.138.192-.282.199-.427.029-.595.393-.958.82-1.291.341-.266.586-.611.765-.998.158-.341.266-.701.061-1.063-.179-.316-.151-.632.064-.887.326-.386.408-.844.486-1.301.098-.063.178-.138.273-.172.667-.238.999-.744 1.126-1.406.09-.466.157-.936.236-1.404.035-.207.027-.439.121-.615.625-1.175.789-2.518 1.361-3.713.108-.225.105-.509.128-.769.023-.2-.14-.442-.315-.492zm-5.744-1.078c-.104.684-.35 1.323-.549 1.977-.061.2-.116.413-.114.619.01 1.011-.156 1.999-.338 2.987a8.546 8.546 0 0 0-.115.943.606.606 0 0 0 .267.543c.212.157.433.303.631.475.064.056.109.19.089.269-.02.076-.133.174-.21.179-.209.015-.421-.012-.631-.028-.277-.021-.522.044-.727.238-.192.181-.382.366-.58.54-.593.52-1.236.772-2.032.463-.659-.256-1.334-.259-2.023-.056-.513.151-1.042.115-1.564-.046-.554-.171-1.124-.291-1.678-.462-1.047-.322-1.877-.912-2.436-1.892-1.123-1.968-.984-1.825-.96-3.744.01-.792.044-1.581-.004-2.375-.043-.697-.141-1.364-.532-1.99l1.109-1.926-.119.024.082-.043c.29-.449.595-.918.654-1.431.085-.728.483-1.14 1.073-1.446.398-.207.579-.543.77-.946.489-1.033 1.326-1.76 2.346-2.271.33-.166.444-.427.382-.781-.009-.051-.001-.105.006-.157.038-.284.274-.483.543-.445.156.022.308.071.464.101.67.129 1.245-.019 1.729-.533a7.63 7.63 0 0 1 .954-.83.84.84 0 0 1 .903-.081c.327.165.627.388.921.61a.831.831 0 0 1 .282.372c.335 1 .754 1.968 1.04 2.989.421 1.506.335 3.03.319 4.556-.004.37-.038.739-.051 1.109-.033.954-.031.954.432 1.965-.115.173-.304.336-.333.524zM202.323 63.61c-.809-.034-1.589.086-2.283.523-.29.182-.556.24-.892.168-.945-.202-1.904-.105-2.846-.012-2.476.245-4.949.486-7.441.47-.423-.003-.847.024-1.269.047-.58.031-1.153.062-1.702.317-.588.273-1.271-.098-1.868.217-.99.098-1.955.352-2.98.215-.884-.118-1.795-.038-2.695-.036-.156 0-.318.031-.465.082-1.025.36-2.097.31-3.144.276-1.637-.053-3.284-.01-4.906-.326-.722-.141-1.366.069-1.928.52-.37.297-.768.586-1.053.956-.083.108-.159.218-.239.322l-.054.068-.027.033a1.141 1.141 0 0 1-.056.063l-.029.03a.884.884 0 0 1-.665.287c-.096.09-.198.176-.297.264-.098.088-.193.18-.272.283-.686.894-.568 1.674.343 2.298.753.515 1.595.82 2.491.971 1.108.186 2.212.132 3.314-.076.777-.146 1.57-.256 2.353-.195.648.05 1.255.077 1.857-.215a.887.887 0 0 1 .611-.037c.418.14.808.147 1.241.05.46-.103.945-.125 1.419-.125.43 0 .842-.021 1.238-.206.248-.115.522-.13.775-.037.372.137.724.069 1.089-.014.356-.081.62.104.805.381.146.218.261.46.359.704.146.365.414.591.736.797.299.191.298.358.069.65-.095.122-.203.234-.297.341.084.493.177.957.241 1.424.073.537.362.989.542 1.484.088.243.17.522.139.77-.089.708.05 1.386.279 2.028.252.706.386 1.422.407 2.185.358.263.695.509 1.029.758.101.075.11.321.009.438-.135.156-.284.3-.459.484.189.598.401 1.192.564 1.8.178.663.236 1.367.483 1.999.256.656.365 1.317.428 2.002.048.528.147 1.043.327 1.548.249.696.467 1.404.674 2.114.142.487.427.837.862 1.084.137.077.278.167.377.284.048.057.047.231-.004.283-.139.142-.316.246-.466.356.328.996 1.441 3.469 1.833 4.083.204.32.459.619.823.716.827.222 1.446.635 1.665 1.511.012.049.05.094.082.135.266.336.57.622.979.781.185.072.484-.015.543-.187.086-.249.133-.515.25-.748.146-.292-.163-.49-.109-.741.054-.252.192-.491.216-.743.069-.727-.02-1.465.204-2.183.057-.182-.021-.415-.062-.619-.169-.838-.531-1.6-.929-2.349a9.119 9.119 0 0 1-.407-.853c-.238-.586-.426-1.195-.693-1.767a60.064 60.064 0 0 0-1.485-2.972c-.18-.337-.132-.584.056-.871.083-.126.179-.304.151-.432-.134-.618-.271-1.242-.865-1.626a3.66 3.66 0 0 1-.596-.503c-.036-.037.002-.207.058-.265.389-.403.388-.396.214-.737-.191-.375-.363-.758-.543-1.138-.23-.486.008-1.053-.281-1.541-.153-.258.167-.481.166-.743 0-.158.024-.332-.032-.472a58.456 58.456 0 0 0-1.105-2.619c-.103-.224-.38-.362-.533-.572-.178-.243.079-.511.017-.762a.966.966 0 0 0-.238-.396c-.177-.193-.388-.353-.56-.549-.033-.037.022-.216.085-.261.272-.196.602-.072.903-.13l-.515-1.835-.303-1.08c-.159-.125-.238-.196-.327-.253-.133-.086-.279-.153-.408-.243-.36-.253-.362-.513-.01-.698.233-.123.481-.221.702-.364.82-.529 1.745-.795 2.687-.889 1.207-.119 2.4-.422 3.627-.331.209.015.422-.043.633-.04.494.009.924-.091 1.304-.457a1.012 1.012 0 0 1 1.045-.208c.384.134.713.148 1.009-.164.712-.112 1.373-.557 2.15-.285.173.061.412-.049.617-.095.669-.15 1.337-.305 2.004-.462.421-.099.494-.388.218-.826-.082-.13-.152-.268-.232-.412.172-.158.384-.269.464-.442.175-.379.293-.787.413-1.189.026-.086-.018-.214-.069-.299-.353-.574-.841-.941-1.54-.97zM188.855 75.158l-.001-.005zM188.865 75.195zM188.862 75.181l-.001-.001.001.001zM166.56 67.417l.054-.068-.054.068z"/><path d="M166.447 67.544a.884.884 0 0 1-.665.287c-.096.09-.198.176-.297.264.098-.088.201-.173.297-.264a.883.883 0 0 0 .665-.287zM188.855 75.158l.006.022-.006-.022zM188.867 75.156l-.006.024v.001l.008-.028c.002-.003-.004.042-.004.042l.007-.046a.79.79 0 0 1-.019.003l.002.005c.004.001.008 0 .012-.001z"/><path d="m188.867 75.156-.012.002.006.022.006-.024zM166.476 67.514zM499.207 2.122c-.752-.182-1.098-.906-1.46-1.619-.07-.139-.187-.254-.284-.378-.109-.14-.459-.17-.579-.049-.111.112-.232.217-.325.342a8.619 8.619 0 0 0-1.212 2.22 21.581 21.581 0 0 1-1.431 3.174c-.128.23-.219.481-.333.719-1.022 2.148-2.078 4.281-3.052 6.45-.386.859-1.021 1.619-1.111 2.608a.466.466 0 0 1-.135.28c-.816.741-1.129 1.773-1.578 2.724-.518 1.099-.997 2.217-1.527 3.31-.507 1.048-.999 2.102-1.356 3.211a9.927 9.927 0 0 1-.767 1.736c-.228.416-.44.843-.618 1.282-.317.783-.606 1.578-.899 2.37a7.99 7.99 0 0 0-.424 1.682c-.16 1.148-.212 2.32-.583 3.431-.36 1.078-.285 2.191-.303 3.298.203.607.361 1.213.029 1.83-.022.041-.017.107-.004.156.191.706.182 1.494.725 2.063.506.531.47 1.278.811 1.872.062.108-.031.304-.051.46-.069.539.327.902.848.772.153-.039.301-.102.452-.149.28-.087.435-.284.498-.56.119-.525.08-1.052.002-1.578-.08-.541-.027-1.051.287-1.519.305-.454.448-.978.411-1.508-.045-.659.112-1.263.349-1.85.402-.995.48-2.053.636-3.094.028-.186-.096-.399-.162-.595a.763.763 0 0 1 .038-.612c.307-.613.652-1.209.917-1.84.33-.784.672-1.551 1.251-2.166-.042-.494-.174-.969.301-1.329.313-.237.428-.61.412-.992-.019-.439.018-.842.344-1.176a.518.518 0 0 0 .153-.273c.085-.824.607-1.451.964-2.15.478-.937 1.031-1.83 1.423-2.818.349-.879.82-1.711 1.143-2.607.07-.195.169-.398.309-.546.259-.275.22-.556.143-.881-.065-.275.021-.368.301-.454.151-.047.336-.033.456-.118.539-.381.85-.927 1.032-1.55a.584.584 0 0 0-.005-.313c-.045-.151-.139-.286-.186-.437-.145-.463-.072-.714.267-.986.37-.297.752-.581 1.107-.895.285-.253.442-.588.467-.977.01-.158.038-.315.053-.465h.004l.001-.004h-.002l.002-.001v-.002l.057-.026.003-.001c-.093-.009-.21.014-.274-.033-.143-.107-.122-.275-.085-.433.053-.227.248-.325.407-.462.295-.254.497-.549.324-.966a.846.846 0 0 1 .259-1.009c.359-.288.506-.646.649-1.045.146-.408.377-.737.853-.858.172-.044.336-.255.433-.428.126-.227.169-.498.272-.74.221-.519.178-1.023-.011-1.543-.218-.597-.395-1.204-.636-1.955zM497.014 11.591z"/><path d="M496.897 12.09c.01-.156.037-.31.056-.465h-.004c-.015.15-.042.307-.052.465zM142.159 104.398c-.219-.197-.212-.42-.013-.686.216-.287.161-.509-.043-.702a2.854 2.854 0 0 0-.363-.306c-.181-.122-.337-.259-.375-.482-.048-.289.235-.299.374-.434.108-.104.232-.229.268-.366.096-.368.1-.774-.158-1.059-.382-.423-.665-.797-.244-1.364.109-.146.078-.407.084-.616.022-.801-.082-1.586-.417-2.32-.117-.256-.166-.485-.072-.755.05-.143.096-.317.058-.454-.17-.621-.199-1.246-.171-1.886.013-.31-.078-.625-.131-.937-.07-.415-.178-.827-.218-1.245-.044-.456-.232-.801-.606-1.058a3.561 3.561 0 0 1-.492-.386c-.063-.062-.104-.202-.078-.281.027-.081.14-.16.231-.188.201-.061.417-.074.616-.139.085-.028.202-.137.203-.212.011-.467.012-.937-.024-1.402-.011-.14-.127-.294-.235-.401-.221-.221-.478-.406-.699-.628-.057-.058-.085-.234-.042-.288.245-.31.356-.628.242-1.027-.046-.162.104-.284.243-.366.2-.118.309-.289.295-.519-.019-.316-.028-.636-.089-.945-.091-.463-.025-.956-.284-1.387-.257-.427-.024-.926-.203-1.389-.125-.324-.058-.715-.277-1.044-.122-.183-.039-.412.086-.593.149-.215.363-.389.423-.748-.038-.129-.111-.325-.151-.529-.06-.31-.032-.656-.161-.93-.149-.318-.428-.574-.645-.851.08-.106.123-.225.202-.257.416-.169.557-.491.458-.89-.166-.669-.283-1.339-.267-2.03.006-.275-.1-.513-.28-.72-.154-.177-.131-.366-.086-.586a2.82 2.82 0 0 0-.297-1.993c-.075-.135-.108-.292-.161-.439l-.003.003-.034.035-.004-.032c-.085.007-.121-.028-.104-.104 0-.002.074-.001.084.016.014.025.017.057.02.088l.015-.002c.131-.391.094-.76-.146-1.088a1.518 1.518 0 0 0-.052-.067c-.134-.161-.315-.281-.457-.435-.115-.124-.156-.311-.028-.422.227-.198.292-.422.242-.703-.092-.518-.423-1.011-.314-1.539.139-.674-.411-1.056-.549-1.602-.026-.102-.064-.207-.062-.31.014-.983-.536-1.553-1.378-1.926-.14-.062-.237-.224-.378-.282-.139-.056-.309-.054-.464-.047a.767.767 0 0 0-.299.097c-1.085.55-1.763 1.482-2.317 2.519-.063.118-.055.351.022.454.253.338.269.647.066 1.014-.06.109-.019.315.045.442.144.284.293.535.191.89-.171.598-.045 1.199.366 1.639.716.768.854 1.663.786 2.642-.004.053.001.106.003.159.03 1.244.469 2.26 1.601 2.9.129.073.24.205.316.335.04.068.02.23-.036.281-.111.102-.263.164-.403.229-.885.411-.912.881-.659 1.842.051.193.193.38.338.526.251.253.279.52.233.863-.062.467-.009.947-.047 1.418-.082 1.018.142 1.999.31 2.988.038.222.205.355.345.515.308.352.293.356-.115.833-.097.114-.195.263-.211.405-.173 1.541.047 3.056.346 4.561.038.191.2.365.327.53.185.241.179.469.033.727a.93.93 0 0 0-.131.437c0 .263.089.528.07.787-.132 1.76.28 3.468.471 5.197.046.418.083.859.246 1.237.199.458.763.533 1.126.834.081.067.151.147.23.216.178.157.184.359.004.558-.07.078-.16.139-.231.216-.351.385-.405.731-.149 1.136.196.31.419.602.618.884-.028.132-.037.238-.073.334-.192.514-.192.512.144.802.158.137.362.254.453.428.149.283-.168.467-.235.706a2.052 2.052 0 0 0-.068.775 2.3 2.3 0 0 0 .568 1.282c.21.237.401.49.602.735.179.218.248.454.161.735-.028.092-.044.245.008.296.388.382.543.895.794 1.353.088.16.376.232.563.128.136-.076.305-.157.369-.283.09-.177.047-.426.149-.589.134-.213.357-.369.537-.554a.258.258 0 0 0 .074-.137c.069-.73.226-1.476-.43-2.067zM138.63 68.599l.034-.035-.034.035zM390.569 60.944c.244.047.464.14.64.322.477.19.968.352 1.426.58 1.088.543 2.16 1.119 3.237 1.684.117.061.209.058.266-.04a.207.207 0 0 0 .013-.149c-.132-.407-.311-.772-.678-1.04-.295-.216-.603-.462-.791-.765-.311-.503-.758-.87-1.14-1.246.004-.471.2-.882-.037-1.293-.071-.123-.076-.31-.051-.458.109-.643-.012-1.27-.167-1.878-.082-.323-.125-.594-.01-.912.124-.343-.257-.559-.28-.872a.458.458 0 0 1 .081-.288c.362-.478.212-1.008.161-1.524-.009-.09-.11-.175-.178-.253-.104-.12-.221-.227-.323-.349-.104-.124-.072-.343.058-.404.095-.044.204-.059.296-.106.135-.068.32-.125.374-.239.056-.118-.037-.299-.031-.451.006-.15.002-.365.093-.437.328-.26.442-.552.357-.965-.022-.107.12-.278.228-.374.267-.237.181-.42-.001-.667-.227-.308-.162-.543.167-.589.513-.073.878-.335 1.198-.707.103-.12.237-.219.316-.353.174-.294.416-.469.751-.524.449-.074.755-.37 1.027-.698.202-.243.366-.517.549-.776a8.642 8.642 0 0 1 1.493-1.639c.365-.307.748-.608 1.215-.731.611-.161 1.205-.419 1.856-.387.438.022.838-.066 1.19-.344.311-.247.678-.277 1.056-.235.263.029.528.05.786.107.524.114 1.032.245 1.486-.21.087-.087.298-.053.452-.073.417-.054.84-.175 1.25-.141.466.039.921.216 1.381.334.102.026.204.056.308.078.274.057.521-.044.767-.139.196-.076.355-.304.335-.486a9.006 9.006 0 0 0-.357-1.706c-.203-.113-.376-.236-.569-.312a318.203 318.203 0 0 0-3.406-1.302 3.172 3.172 0 0 0-.612-.161c-1.258-.2-2.515-.34-3.765.065-.402.13-.825.198-1.221.343a2.67 2.67 0 0 1-1.085.174c-.21-.011-.424 0-.634.022-.506.054-.923.268-1.111.765a1.058 1.058 0 0 1-.628.653c-.286.122-.547.316-.796.509-1.255.971-2.487 1.974-3.76 2.922-.816.608-1.416 1.414-2.128 2.118-.073.072-.109.181-.163.271-.147.247-.129.486.068.727.066.081.158.141.229.218.229.252.198.554-.097.617-.583.123-.914.476-1.14.992-.092.21-.123.406-.017.603.247.459-.007.673-.379.865-.146.075-.166.292-.07.418.095.125.219.228.315.352.158.202.133.356-.081.541-.079.069-.183.11-.259.183-.374.357-.542.828-.336 1.279.177.388.257.647-.082.973-.179.172-.276.441-.378.679a.799.799 0 0 0 .04.761c.083.135.192.253.271.39.145.252.141.496-.061.726-.174.198-.381.397-.38.676.001.58-.05 1.179.078 1.735.022.096.047.191.073.286.181.656.452 1.291.677 1.937.244.039.464.133.638.318z"/><path d="M417.62 65.866c-.571-.102-1.142-.104-1.701.078-.609.198-1.247.326-1.861.17-.439-.111-.832-.081-1.243.014-.513.119-1.031.23-1.529.398-.462.156-.9.28-1.381.077a.663.663 0 0 0-.458.009c-1.006.398-2.11.029-3.117.408-.088.033-.218.009-.31-.031-.358-.154-.703-.15-1.075-.029-.574.187-1.146.127-1.704-.106-.194-.081-.414-.107-.6-.201-.418-.21-.806-.151-1.218.026-.265.114-.53.021-.686-.233-.236-.387-.52-.61-1.017-.609-.52.001-1.008-.251-1.517-.367-.396-.091-.751-.373-1.116-.583-1.65-.947-3.296-1.901-4.946-2.848-.357-.205-.72-.397-.951-.756a1.109 1.109 0 0 1-.637-.318 1.167 1.167 0 0 1-.629-.311c-.176.057-.305.16-.333.324a.448.448 0 0 0-.001.127c.052.417.086.847.37 1.192.24.29.378.623.496.979.079.241.237.476.415.66.234.242.352.495.379.833.068.857.525 1.472 1.276 1.871.653.347 1.314.678 1.965 1.029.836.451 1.667.913 2.498 1.374.138.076.265.172.396.261.133.091.196.362.091.4-.09.033-.214.083-.282.047-1.194-.632-2.382-1.276-3.584-1.906.086.299.281.507.55.671.903.549 1.777 1.151 2.705 1.653.737.399 1.53.695 2.311 1.007.239.095.515.109.777.129.316.025.636-.001.951.027 1.366.121 2.741-.202 4.106.083.198.041.418-.041.629-.041 1.055-.003 2.061-.431 3.127-.358.142.01.348-.059.431-.165.511-.654 1.231-.728 1.975-.791.253-.022.501-.151.744-.249.439-.177.872-.368 1.35-.572.152-.231.317-.501.502-.756.216-.297.451-.58.675-.865a7.632 7.632 0 0 0 2.822-1.061c.172-.108.313-.276.437-.44.032-.041-.038-.243-.082-.251z"/><path d="m393.596 67.79-.025.015.033.018-.008-.033zM393.605 67.823l.006.022c1.202.63 2.39 1.273 3.584 1.906-1.2-.636-2.394-1.283-3.59-1.928zM389.925 60.654c-.176.057-.305.16-.333.324.028-.164.157-.266.333-.324zM480.639 54.699c-.448-.353-.661-.794-.538-1.372.019-.088.016-.18.018-.272-.196.003-.392.014-.587-.001-.302-.024-.454-.167-.535-.487-.025-.101-.003-.214-.033-.313a.79.79 0 0 0-1.274-.404c-.205.163-.411.345-.555.56-.794 1.188-1.526 2.409-2.017 3.763a39.773 39.773 0 0 1-.942 2.353c-.529 1.213-1.026 2.433-1.35 3.722-.322 1.281-.716 2.544-1.006 3.831-.22.975-.504 1.952-.458 2.969.052 1.139.448 2.168 1.134 3.067.216.284.538.521.861.684.611.308 1.253.557 1.89.812.32.128.639-.124.628-.493a3.828 3.828 0 0 0-.1-.777c-.087-.358-.21-.707-.32-1.066.088-.262.187-.507.252-.761.181-.716.408-1.428.503-2.156.088-.68.144-1.355.294-2.032.125-.561.206-1.138.332-1.704.034-.153-.053-.281-.155-.419-.352-.477-.334-.555.255-.701.348-.087.529-.318.738-.548.1-.575.146-1.134-.249-1.641-.1-.128.064-.456.248-.527.194-.076.453-.056.591-.181.182-.164.254-.445.412-.644a.341.341 0 0 1 .037-.039c.063-.058.148-.098.232-.139-.279-.005-.559-.003-.836-.029-.081-.008-.186-.114-.219-.199a1.647 1.647 0 0 1-.006-1.227c.086-.215.298-.267.515-.29.191-.02.227-.158.229-.327.002-.151.032-.303.05-.46.391-.194.754-.401 1.139-.557.345-.14.509-.401.483-.727-.036-.464.245-.776.427-1.14-.028-.044-.049-.098-.088-.128zm-4.001 3.978a.314.314 0 0 1-.019.041.165.165 0 0 1-.024.033l-.001.001a.163.163 0 0 1-.059.043.233.233 0 0 1-.161 0l-.124-.263c.057-.025.115-.066.172-.091a.19.19 0 0 1 .099-.02c.121.017.163.136.117.256z"/><path d="m479.061 59.725.004-.003c.002-.002-.017.062-.017.062l.019-.065-.027.015v.002l.021-.011zM478.963 59.775s0-.001 0 0l-.017.007h.002l.015-.007z"/><path d="M479.042 59.741a1.774 1.774 0 0 1-.049.041c.016-.013.033-.026.049-.041 0 .001 0 .001 0 0zM480.122 53.012s0 .001 0 0l.042.039a3.42 3.42 0 0 1-.042-.039zM480.12 53.054c-.003.092 0 .184-.019.272.019-.088.016-.18.019-.272zM478.948 59.782h.021l-.006-.008a.11.11 0 0 1-.015.008z"/><path d="m479.061 59.725-.021.011.002.005a1.7 1.7 0 0 0 .019-.016zM480.122 53.012l.041.038-.041-.038zM480.167 53.054l-.003-.003-.042-.038-.002.042.047-.001zM478.993 59.783l.055.001a.235.235 0 0 0-.006-.042l-.049.041zM478.677 59.96zM49.91 62.624a.96.96 0 0 0 .074-.006c-.025.002-.049.005-.074.006zM49.946 62.588l.002-.002-.043-.011v.002a.49.49 0 0 1 .041.011zM54.643 65.892l.001-.003.002-.01-.002-.004-.002.012.001.002v.003z"/><path d="M54.764 65.273c.352-.879.241-1.057 1.316-.95.315.031.634.023.951.021.37-.002.74-.013 1.087-.172.675-.308 1.391-.469 2.116-.614.567-.113 1.116-.317 1.669-.494.199-.064.43-.125.568-.265.515-.522 1.089-.76 1.838-.628.295.052.63-.053.934-.135.968-.26 1.934-.532 2.894-.824.349-.106.683-.27 1.014-.428.191-.091.267-.279.142-.55-.022-.048-.052-.093-.067-.143-.113-.376-.078-.433.317-.527.051-.012.107-.004.157-.017.658-.165.947-.635.785-1.295-.023-.094-.091-.221-.17-.252-.642-.246-1.293-.468-1.994-.238-.25.082-.525.121-.746.251-.346.203-.694.233-1.067.16-.747-.145-1.466-.062-2.181.2-.343.126-.714.226-1.075.234-.327.007-.62.064-.916.184-.293.119-.59.268-.897.304-.7.082-1.319.351-1.894.746-.914-.191-1.81-.154-2.698.01a86.089 86.089 0 0 0-3.105.622c-.772.172-1.535.389-2.299.598-.509.139-.849.621-1.405.691-.154.019-.204.216-.178.39l.015.117c.012.101.021.203.031.304l.043.011.036.032c.068-.007.137-.019.206-.028.027-.003.053-.007.08-.009a.627.627 0 0 1 .261.021c1.152.397 2.233.941 3.19 1.706.053.042.067.209.027.269-.04.059-.197.104-.26.072a119.405 119.405 0 0 1-2.942-1.551c-.211-.116-.377-.314-.561-.48a.96.96 0 0 1-.074.006l-.005-.047c-.138-.038-.277-.07-.411-.118-.899-.317-1.109-.029-1.528.627-.028.044-.049.092-.075.138a.522.522 0 0 0 .149.695c.34.242.688.472 1.031.711.215.15.208.337-.018.653-.03.042-.075.075-.103.118-.086.134-.029.353.115.387.197.046.416.121.601.078.623-.143 1.225-.477 2.114-1.098.309.054.663.136 1.021.174.362.039.735.001 1.092.062.186.032.387.171.511.32.123.149.162.368.239.551.037-.204.045-.415.119-.6zM49.905 62.577v-.003.003z"/><path d="M49.905 62.574c-.139-.036-.277-.068-.411-.116.134.047.273.08.411.118v-.002zM54.643 65.889l-.001-.002-.001.01.002-.005zM54.647 65.884v-.001zM49.91 62.624l-.005-.047.005.047zM54.647 65.884v-.001l-.001-.004-.002.011zM49.946 62.588l-.041-.011.005.047.036-.036z"/><path d="M54.643 65.892v.001l.001-.003zM54.64 65.899v-.001.001zM54.643 65.893v-.001l-.002.005-.001.001zM54.647 65.883c.001-.001.001-.002 0 0zM54.644 65.89l.003-.006zM393.415 67.826c-.164-.051-.204-.011-.084.048.03.015.074.002.121-.019a1.53 1.53 0 0 0 .072-.034c-.038.006-.076.015-.109.005z"/><path d="m393.524 67.821.009-.004c-.043.009-.084.019-.118.009.033.01.071.001.109-.005zM393.452 67.855a1.53 1.53 0 0 0 .072-.034c-.024.012-.048.024-.072.034zM393.596 67.79a.663.663 0 0 0-.063.027l.031-.006.008-.006-.001-.001.025-.014zM393.533 67.817l-.009.004.009-.004z"/><path d="m393.596 67.79-.026.014.001.001.025-.015zM497.011 11.592a1.016 1.016 0 0 0-.057.028v.001h.043l.012-.022.005-.009-.003.002zM496.997 11.622l.012-.022-.012.022zM496.996 11.624l-.022.041.034-.013a.082.082 0 0 0 .028-.016l.002-.003c.001-.006-.013-.009-.042-.009z"/><path d="M497.037 11.633c.002-.007-.011-.01-.04-.011l-.001.002c.029 0 .043.003.041.009zM496.973 11.665l.034-.013a.513.513 0 0 1-.034.013zM497.035 11.636zM497.014 11.591zM496.952 11.622h.001l.001-.002zM497.014 11.591l-.003.001zM480.121 53.012h.001zM480.163 53.05l.004.004-.004-.004zM480.167 53.054l-.004-.004-.041-.038.042.039.003.003zM480.167 53.054l-.003-.003.003.003zM188.862 75.181l-.017.065.001-.003.02-.048a.057.057 0 0 1-.004-.014zM188.846 75.243l-.001.003.001-.003zM188.865 75.195l-.004-.014.004.014z"/><path d="m188.87 75.153-.008.028.004.014s.006-.045.004-.042zM85.257 104.479l-.032.033.025-.024a.028.028 0 0 1 .007-.009z"/><path d="m85.261 104.475-.005.004-.008.009a.07.07 0 0 0 .013-.013zM37.024 118.862h.005c.005-.001.01-.005.015-.014a.206.206 0 0 0 .017-.036l-.064-.014c.008.039.017.06.027.064zM36.946 118.788l.05.011a1.084 1.084 0 0 1-.009-.052l-.041.041z"/><path d="M37.024 118.862c-.01-.004-.019-.025-.027-.063.008.038.017.059.027.063zM37.029 118.862h-.002.002zM478.969 59.783l.01.012.005-.004.009-.008h-.024z"/><path d="m478.969 59.783.01.012.005-.004-.005.004a.106.106 0 0 0-.01-.012zM479.04 59.734c-.017-.063-.056-.068-.116-.01-.001.001.004.008.011.017l.027.033c.027-.013.053-.026.078-.04zM478.935 59.741l.027.033-.027-.033zM479.061 59.725l.002-.001-.021.018a.235.235 0 0 1 .006.042s.019-.065.017-.062l-.004.003z"/><path d="m478.963 59.775.077-.039v-.002l-.077.041c0-.001 0 0 0 0zM479.042 59.742l.021-.018-.002.001-.019.017zM478.963 59.775l-.001-.001.001.001zM478.963 59.775l.006.008zM478.993 59.783l.049-.041a.008.008 0 0 0-.002-.005l-.077.039.006.008.024-.001zM324.217 63.24c.03-.045-.041-.168-.086-.244-.016-.028-.109-.045-.134-.025-.068.052-.169.131-.164.193.009.125.058.247.099.369.098-.096.212-.181.285-.293zM323.911 63.557l.036.034.003.003-.019-.061-.022.022.002.002zM323.911 63.557l.036.034-.036-.034z"/></g></svg>