<?xml version="1.0" encoding="UTF-8"?>
<svg id="_레이어_1" data-name="레이어_1" xmlns="http://www.w3.org/2000/svg" viewBox="0 0 114.39 110.29">
  <defs>
    <style>
      .cls-1 {
        fill: #fff;
        opacity: .67;
        stroke: #df3927;
        stroke-width: .55px;
      }

      .cls-1, .cls-2, .cls-3 {
        stroke-miterlimit: 10;
      }

      .cls-2 {
        stroke-width: 1.1px;
      }

      .cls-2, .cls-3 {
        fill: none;
        stroke: #56524d;
      }

      .cls-4 {
        fill: #df3927;
      }

      .cls-5 {
        fill: #56524d;
      }

      .cls-6 {
        fill: #fad7c2;
      }

      .cls-7 {
        fill: #de2726;
      }

      .cls-3 {
        stroke-width: 1.65px;
      }
    </style>
  </defs>
  <path class="cls-4" d="M0,58.56C0,28.15,25.43,0,56.82,0s56.82,24.65,56.82,55.06-25.44,55.06-56.82,55.06S0,88.97,0,58.56Z"/>
  <path class="cls-6" d="M112.93,53.98c-6.26-20.42-30.91-30.97-55.07-23.56-21.39,6.55-35.21,25-33.74,43.32-2.35,3.32-3.67,7.03-3.67,10.96,0,14.04,16.87,25.42,37.69,25.42,10.07,0,19.21-2.67,25.97-7.01,21.98-8.44,34.77-29.74,28.83-49.13Z"/>
  <path class="cls-5" d="M100.92,57.63s1.2,2.74,4.86,1.15c0,0,3.01-1.95.29-4.39l-5.15,3.24Z"/>
  <path class="cls-5" d="M81.95,63.3s.72,3.27-3.64,4.24c0,0-3.99.22-3.15-3.77l6.79-.46Z"/>
  <path class="cls-2" d="M71.05,58.56s7.85-.78,12.52-2.01"/>
  <path class="cls-2" d="M97.11,52.55s7.82-3.73,9.44-5.05"/>
  <path class="cls-7" d="M88.92,67.39c0-4.52,3.67-8.19,8.19-8.19s8.19,3.67,8.19,8.19-3.67,8.18-8.19,8.18-8.19-3.66-8.19-8.18Z"/>
  <path class="cls-1" d="M97.83,77.16c-.46.16-2.81,1.59-6.65.87,0,0-4.25-1.32-4.94,2.06,0,0-1.92,6.67,8.09,4.34,0,0,8.23-1.84,12.34-6.4,0,0,2.94-2.64.45-4.05,0,0-2.19-1.09-4.15.77,0,0-3.31,1.79-5.14,2.42Z"/>
  <path class="cls-3" d="M91.63,82.15s4.3-4.5,12.21-4.1"/>
  <path class="cls-4" d="M103.11,29.97l-12.91-8.38-35.35-4.77-29.57,21.93-5.72,24.32-10.62-3.86v10.78c.22,1.11,14.02,30.54,14.02,30.54l26.43,9.59s10.25,1.11,15.49-2.38l.94-.2c.33-.52.64-1.03.94-1.55.27-.37.5-.78.67-1.22h0c13.88-26.26-9.32-55.45-9.32-55.45,38.35,5.63,45.01-19.35,45.01-19.35Z"/>
</svg>